<?xml version="1.0" encoding="UTF-8"?>
<!-- Generator: Adobe Illustrator 21.0.0, SVG Export Plug-In . SVG Version: 6.00 Build 0)  -->
<svg version="1.1" id="Layer_1" xmlns="http://www.w3.org/2000/svg" xmlns:xlink="http://www.w3.org/1999/xlink" x="0px" y="0px" viewBox="0 0 959.9 1015.9" style="enable-background:new 0 0 959.9 1015.9;" xml:space="preserve">
<style type="text/css">
	.st0{fill:#F6F6F6;}
</style>
<path class="st0" d="M959.9,2.1c0,327.3,0,654.5,0,981.8c-5.8-2.4-11.6-4.7-17.3-7.3c-110.3-49.1-215.8-16.3-325.3,14.6  c-55.4,15.6-110,30.2-167.4,15.8c-76.2-19.1-131.2-64.3-166.1-134.7c-10.4-21-21.6-41.9-34.4-61.5c-31.5-48-73.3-85.4-121.3-116.9  C61.4,650.4,21.8,588.3,7.9,510C-4,443.3,11.6,368.6,50,312.7c32.5-47.3,81.2-82.6,136.2-98.7c24.5-7.1,50-10.5,75.5-9.8  c21.2,0.5,42.3,3.6,63.3,6c41.5,4.6,83,9.5,124.5,14.3c56.8,6.5,113.9,14.2,171.2,12.2c139.2-4.9,262.7-85.8,325.4-209.3  C950.5,18.8,955.3,10.5,959.9,2.1z"/>
<style xmlns="">@font-face{
    font-family: 'bnazanin';
    src:'bnazanin.ttf';
}
.dideo-tooltip {
    position: relative;
    display: inline-block;
    font-family: 'bnazanin';
    margin-bottom: 2px;
}

.dideo-tooltip .tooltiptext {
    visibility: hidden;
    font-family: 'bnazanin';
    width: 120px;
    font-size: 13px;
    background-color: black;
    color: #fff;
    text-align: center;
    border-radius: 6px;
    padding: 5px 0;
    position: absolute;
    z-index: 1;
    top: 0px;
    left: 110%;
}
.dideo-img{
    width: 25px;
    height: 25px;
    margin-bottom: -7px;
    filter: drop-shadow(0px 0px 2px #adadad);
    webkit:filter: drop-shadow(0px 0px 2px #adadad);
}
.dideo-tooltip .tooltiptext::after {
    content: "";
    position: absolute;
    top: 50%;
    right: 100%;
    margin-top: -5px;
    border-width: 5px;
    border-style: solid;
    border-color: transparent black transparent transparent;
}
.dideo-tooltip:hover .tooltiptext {
    visibility: visible;
}
.srg{
    min-width: 750px;
}</style></svg>